<?xml version="1.0" encoding="UTF-8"?>
<svg xmlns="http://www.w3.org/2000/svg" viewBox="0 0 1920 1080" width="1920" height="1080" role="img" aria-label="Hotspots">
  <path
    id="tree"
    class="hotspot"
    data-label="Megérintetted a fát"
    data-scene="default"
    fill="#000"
    fill-opacity="0"
    d="M1200,700 C1180,680 1170,650 1185,630 1200,610 1240,600 1260,620 1280,640 1285,675 1270,695 1305,700 1330,720 1335,740 1340,765 1320,790 1300,800 1280,810 1245,815 1220,805 1210,835 1180,850 1150,845 1120,840 1105,815 1115,795 1125,775 1160,760 1185,760 1165,740 1160,720 1200,700 z"
  />

  <path
    id="window"
    class="hotspot"
    data-label="Bekopogtál az ablakon"
    data-scene="default"
    fill="#000"
    fill-opacity="0"
    d="M1058 380 H1262 a8 8 0 0 1 8 8 V532 a8 8 0 0 1 -8 8 H1058 a8 8 0 0 1 -8 -8 V388 a8 8 0 0 1 8 -8 Z"
  />

  <path
    id="door"
    class="hotspot"
    data-label="Beléptél a házba"
    data-scene="default"
    fill="#000"
    fill-opacity="0"
    d="M805 500 H975 a5 5 0 0 1 5 5 V795 a5 5 0 0 1 -5 5 H805 a5 5 0 0 1 -5 -5 V505 a5 5 0 0 1 5 -5 Z"
  />
</svg>